<svg width="178" height="99" viewBox="0 0 178 99" fill="none" xmlns="http://www.w3.org/2000/svg">
    <g>
        <path fill-rule="evenodd" clip-rule="evenodd" d="M41.113 63.184V75.684H0V4.297H41.113V16.699H15.137V32.373H39.307V44.775H15.137V63.184H41.113Z" fill="#00D19D" stroke="#00D19D" stroke-width="0.944882" stroke-linecap="round"/>
        <path fill-rule="evenodd" clip-rule="evenodd" d="M69.238 98.389V0H79.932V98.389H69.238Z" fill="#00D19D" stroke="#00D19D" stroke-width="0.944882" stroke-linecap="round"/>
        <path fill-rule="evenodd" clip-rule="evenodd" d="M145.184 75.387H138.396L114.422 12.203H114.031C114.083 12.7442 114.13 13.2858 114.171 13.828C114.208 14.314 114.243 14.8283 114.277 15.371C114.312 15.9425 114.344 16.5142 114.373 17.086C114.424 18.0887 114.468 19.0917 114.507 20.095C114.549 21.1831 114.586 22.2715 114.617 23.36C114.683 25.6627 114.715 27.9663 114.715 30.27V75.387H107V4H119.305L141.912 63.375H142.254L165.203 4H177.41V75.387H169.207V29.684C169.207 27.568 169.24 25.444 169.305 23.312C169.337 22.2742 169.373 21.2365 169.415 20.199C169.454 19.2181 169.499 18.2374 169.549 17.257C169.584 16.5782 169.62 15.8996 169.659 15.221C169.689 14.685 169.719 14.1737 169.75 13.687C169.779 13.2249 169.81 12.7629 169.842 12.301H169.451L145.184 75.387Z" fill="#fffdf7" stroke="#fffdf7" stroke-width="0.944882" stroke-linecap="round"/>
    </g>
</svg>
